<svg id="svg" version="1.1" xmlns="http://www.w3.org/2000/svg" xmlns:xlink="http://www.w3.org/1999/xlink" width="400" height="52.825965304980414" viewBox="0, 0, 400,52.825965304980414"><g id="svgg"><path id="path0" d="M68.473 1.900 C 68.229 2.027,67.498 2.221,66.849 2.331 C 66.199 2.440,65.630 2.591,65.583 2.667 C 65.537 2.742,64.955 2.899,64.291 3.015 C 63.627 3.132,63.046 3.276,63.000 3.335 C 62.954 3.395,62.429 3.543,61.833 3.664 C 61.237 3.784,60.675 3.939,60.583 4.006 C 60.492 4.074,60.079 4.183,59.667 4.248 C 59.254 4.314,58.692 4.466,58.417 4.586 C 58.142 4.706,57.617 4.855,57.250 4.917 C 56.883 4.979,56.490 5.107,56.376 5.201 C 56.262 5.296,56.018 5.333,55.834 5.285 C 55.651 5.237,55.464 5.257,55.419 5.330 C 55.374 5.402,54.999 5.512,54.585 5.574 C 54.172 5.636,53.833 5.748,53.833 5.823 C 53.833 5.898,53.233 6.053,52.500 6.167 C 51.767 6.281,51.167 6.433,51.167 6.505 C 51.167 6.577,50.623 6.732,49.958 6.848 C 49.294 6.965,48.712 7.109,48.667 7.169 C 48.621 7.228,48.096 7.376,47.500 7.497 C 46.904 7.618,46.342 7.770,46.250 7.836 C 46.158 7.902,45.558 8.051,44.917 8.167 C 44.275 8.282,43.673 8.437,43.580 8.511 C 43.486 8.584,42.905 8.737,42.288 8.851 C 41.671 8.965,41.167 9.110,41.167 9.174 C 41.167 9.279,40.849 9.351,39.208 9.616 C 38.910 9.664,38.667 9.761,38.667 9.832 C 38.667 9.903,38.268 10.011,37.780 10.072 C 37.293 10.133,36.696 10.286,36.453 10.412 C 36.211 10.538,35.447 10.732,34.756 10.843 C 34.065 10.955,33.500 11.105,33.500 11.177 C 33.500 11.250,32.938 11.400,32.250 11.511 C 31.563 11.622,31.000 11.770,31.000 11.841 C 31.000 11.911,30.606 12.020,30.125 12.083 C 29.644 12.146,29.041 12.299,28.786 12.422 C 28.531 12.546,27.762 12.741,27.078 12.856 C 26.393 12.971,25.833 13.117,25.833 13.180 C 25.833 13.244,25.327 13.389,24.708 13.503 C 24.090 13.617,23.508 13.764,23.417 13.830 C 23.325 13.896,22.762 14.049,22.167 14.170 C 21.571 14.291,21.046 14.438,21.000 14.498 C 20.954 14.558,20.373 14.702,19.708 14.818 C 19.044 14.935,18.500 15.089,18.500 15.161 C 18.500 15.234,17.900 15.386,17.167 15.500 C 16.433 15.614,15.833 15.763,15.833 15.830 C 15.833 15.898,15.271 16.049,14.583 16.167 C 13.896 16.284,13.333 16.438,13.333 16.508 C 13.333 16.578,12.940 16.687,12.458 16.750 C 11.977 16.813,11.376 16.965,11.123 17.087 C 10.870 17.210,10.101 17.400,9.415 17.511 C 8.728 17.622,8.167 17.773,8.167 17.846 C 8.167 17.919,7.829 18.030,7.417 18.092 C 7.004 18.154,6.667 18.280,6.667 18.372 C 6.667 18.464,6.477 18.503,6.246 18.458 C 6.015 18.414,5.791 18.434,5.748 18.503 C 5.706 18.572,5.332 18.679,4.919 18.741 C 4.505 18.803,4.167 18.915,4.167 18.990 C 4.167 19.066,3.567 19.224,2.833 19.344 C 2.100 19.463,1.500 19.612,1.500 19.676 C 1.500 19.740,1.270 19.838,0.989 19.894 C 0.268 20.038,0.328 20.950,1.083 21.314 C 1.358 21.447,1.771 21.647,2.000 21.759 C 2.229 21.870,2.660 22.014,2.958 22.077 C 3.256 22.141,3.500 22.248,3.500 22.315 C 3.500 22.382,3.892 22.537,4.370 22.660 C 4.849 22.783,5.341 22.984,5.465 23.108 C 5.589 23.232,5.867 23.333,6.083 23.333 C 6.299 23.333,6.577 23.434,6.701 23.558 C 6.824 23.681,7.317 23.876,7.796 23.991 C 8.275 24.106,8.667 24.249,8.667 24.309 C 8.667 24.370,8.985 24.516,9.375 24.634 C 10.298 24.914,11.894 25.552,12.000 25.683 C 12.046 25.740,12.477 25.886,12.958 26.008 C 13.440 26.130,13.833 26.289,13.833 26.362 C 13.833 26.435,14.171 26.580,14.583 26.684 C 14.996 26.788,15.333 26.927,15.333 26.993 C 15.333 27.059,15.746 27.212,16.250 27.333 C 16.754 27.454,17.167 27.615,17.167 27.691 C 17.167 27.767,17.504 27.914,17.917 28.017 C 18.329 28.121,18.667 28.264,18.667 28.335 C 18.667 28.405,18.948 28.516,19.292 28.580 C 19.635 28.644,20.219 28.835,20.589 29.003 C 20.959 29.171,21.483 29.365,21.754 29.433 C 22.025 29.501,22.347 29.656,22.469 29.778 C 22.591 29.900,22.854 30.001,23.054 30.003 C 23.584 30.006,23.777 30.184,23.909 30.792 C 23.974 31.090,24.077 31.333,24.139 31.333 C 24.267 31.333,24.667 32.530,24.667 32.914 C 24.667 33.053,24.741 33.167,24.831 33.167 C 24.921 33.167,25.080 33.504,25.184 33.917 C 25.288 34.329,25.430 34.667,25.499 34.667 C 25.568 34.667,25.671 34.898,25.728 35.180 C 25.825 35.665,26.057 36.269,26.590 37.417 C 26.718 37.692,26.918 38.235,27.035 38.625 C 27.152 39.015,27.299 39.333,27.361 39.333 C 27.423 39.333,27.524 39.577,27.586 39.875 C 27.649 40.173,27.792 40.567,27.905 40.750 C 28.019 40.933,28.215 41.440,28.342 41.875 C 28.469 42.310,28.624 42.667,28.686 42.667 C 28.749 42.667,28.890 43.042,29.000 43.500 C 29.110 43.958,29.261 44.333,29.335 44.333 C 29.409 44.333,29.565 44.708,29.683 45.167 C 29.800 45.625,29.952 46.000,30.020 46.000 C 30.087 46.000,30.235 46.412,30.348 46.917 C 30.461 47.421,30.610 47.833,30.680 47.833 C 30.750 47.833,30.858 48.077,30.920 48.375 C 30.982 48.673,31.131 49.072,31.251 49.262 C 31.371 49.452,31.566 49.940,31.685 50.345 C 31.803 50.751,31.942 51.121,31.992 51.167 C 32.042 51.212,32.163 51.395,32.261 51.572 C 32.679 52.329,33.319 52.330,33.739 51.575 C 33.837 51.399,34.048 51.156,34.208 51.035 C 34.369 50.914,34.500 50.706,34.500 50.574 C 34.500 50.442,34.564 50.333,34.643 50.333 C 34.765 50.333,35.708 49.069,36.250 48.178 C 36.342 48.028,36.512 47.795,36.628 47.661 C 37.366 46.811,37.666 46.392,37.666 46.214 C 37.667 46.103,37.817 45.931,38.000 45.833 C 38.183 45.735,38.333 45.553,38.333 45.429 C 38.333 45.304,38.446 45.159,38.583 45.106 C 38.721 45.054,38.833 44.925,38.833 44.821 C 38.833 44.642,39.368 43.902,39.918 43.319 C 40.055 43.174,40.167 42.993,40.167 42.917 C 40.167 42.840,40.276 42.659,40.409 42.514 C 41.202 41.650,41.333 41.488,41.334 41.375 C 41.334 41.256,41.839 40.587,42.405 39.958 C 42.549 39.798,42.667 39.608,42.667 39.537 C 42.667 39.466,42.798 39.286,42.958 39.137 C 43.119 38.988,43.419 38.615,43.626 38.308 C 43.833 38.001,44.344 37.300,44.761 36.750 C 45.178 36.200,45.672 35.506,45.859 35.208 C 46.047 34.910,46.267 34.667,46.350 34.667 C 46.432 34.667,46.500 34.570,46.500 34.452 C 46.500 34.334,46.722 33.978,46.993 33.660 C 47.265 33.343,47.490 33.027,47.493 32.958 C 47.497 32.890,47.618 32.702,47.762 32.542 C 48.385 31.849,48.833 31.238,48.833 31.082 C 48.833 30.989,48.983 30.820,49.167 30.705 C 49.350 30.591,49.500 30.420,49.500 30.325 C 49.500 30.142,49.577 30.033,50.240 29.273 C 50.469 29.011,50.699 28.661,50.751 28.497 C 50.803 28.332,50.956 28.155,51.090 28.104 C 51.224 28.053,51.333 27.899,51.333 27.764 C 51.333 27.628,51.427 27.457,51.542 27.383 C 51.657 27.310,51.976 26.915,52.250 26.506 C 52.713 25.816,52.952 25.515,53.591 24.819 C 53.724 24.674,53.834 24.487,53.836 24.403 C 53.837 24.319,54.135 23.920,54.499 23.517 C 54.862 23.114,55.204 22.646,55.258 22.476 C 55.312 22.306,55.426 22.167,55.511 22.167 C 55.597 22.167,55.667 22.055,55.667 21.918 C 55.667 21.781,55.817 21.576,56.000 21.461 C 56.183 21.347,56.333 21.177,56.334 21.085 C 56.334 20.935,56.702 20.426,57.363 19.662 C 57.484 19.521,57.696 19.190,57.833 18.926 C 57.971 18.661,58.271 18.251,58.500 18.014 C 58.729 17.777,59.067 17.366,59.250 17.100 C 59.433 16.834,59.708 16.484,59.861 16.322 C 60.014 16.160,60.090 15.978,60.029 15.918 C 59.969 15.858,60.050 15.735,60.210 15.646 C 60.369 15.557,60.500 15.393,60.500 15.282 C 60.500 15.171,60.650 14.987,60.833 14.872 C 61.017 14.758,61.167 14.589,61.167 14.499 C 61.167 14.408,61.285 14.202,61.429 14.042 C 62.051 13.349,62.500 12.738,62.500 12.582 C 62.500 12.489,62.650 12.320,62.833 12.205 C 63.017 12.091,63.167 11.893,63.167 11.766 C 63.167 11.640,63.279 11.492,63.417 11.440 C 63.554 11.387,63.667 11.241,63.667 11.114 C 63.667 10.988,63.817 10.749,64.000 10.583 C 64.183 10.417,64.333 10.183,64.333 10.063 C 64.333 9.943,64.483 9.765,64.667 9.667 C 64.850 9.569,65.000 9.381,65.000 9.250 C 65.000 9.119,65.150 8.931,65.333 8.833 C 65.517 8.735,65.667 8.580,65.667 8.487 C 65.667 8.272,66.353 7.291,66.625 7.117 C 66.740 7.043,66.833 6.877,66.833 6.748 C 66.833 6.618,66.983 6.431,67.167 6.333 C 67.350 6.235,67.500 6.049,67.500 5.919 C 67.500 5.789,67.631 5.607,67.792 5.513 C 67.952 5.420,68.024 5.341,67.952 5.338 C 67.811 5.333,68.069 4.981,68.542 4.535 C 68.702 4.383,68.833 4.161,68.833 4.041 C 68.833 3.921,68.946 3.780,69.083 3.727 C 69.221 3.674,69.333 3.525,69.333 3.395 C 69.333 3.265,69.521 3.087,69.750 3.000 C 70.163 2.843,70.273 2.471,70.066 1.930 C 69.939 1.600,69.080 1.583,68.473 1.900 " stroke="none" fill="#006aff" fill-rule="evenodd"></path><path id="path1" d="M182.280 1.942 C 182.218 2.004,182.167 12.057,182.167 24.280 L 182.167 46.505 187.125 46.461 L 192.083 46.417 192.167 36.750 L 192.250 27.083 192.821 26.030 C 194.901 22.193,199.669 22.195,201.141 26.033 C 201.384 26.664,201.422 27.884,201.458 36.250 C 201.481 41.475,201.539 45.920,201.587 46.127 L 201.674 46.505 206.629 46.461 L 211.583 46.417 211.634 37.167 C 211.665 31.436,211.621 27.600,211.517 27.083 C 211.425 26.625,211.275 25.387,211.183 24.333 C 211.069 23.014,210.910 22.198,210.675 21.716 C 210.487 21.331,210.333 20.945,210.333 20.858 C 210.333 19.659,207.384 16.749,205.583 16.171 C 205.217 16.053,204.812 15.873,204.683 15.770 C 204.296 15.461,198.486 15.417,197.803 15.717 C 197.499 15.851,196.987 16.059,196.667 16.178 C 195.537 16.598,192.833 18.526,192.833 18.912 C 192.833 19.008,192.684 19.180,192.501 19.294 C 192.172 19.500,192.169 19.441,192.126 10.709 L 192.083 1.917 187.239 1.873 C 184.574 1.848,182.343 1.880,182.280 1.942 M306.833 24.167 L 306.833 46.505 311.792 46.461 L 316.750 46.417 316.750 24.167 L 316.750 1.917 311.792 1.873 L 306.833 1.828 306.833 24.167 M369.500 24.169 L 369.500 46.505 374.458 46.461 L 379.417 46.417 379.460 39.598 L 379.504 32.779 380.419 34.170 C 380.922 34.934,381.333 35.618,381.333 35.688 C 381.333 35.759,381.431 35.877,381.551 35.950 C 381.671 36.023,381.868 36.327,381.988 36.625 C 382.109 36.923,382.277 37.167,382.362 37.167 C 382.448 37.167,382.596 37.392,382.692 37.667 C 382.788 37.942,382.922 38.167,382.990 38.167 C 383.058 38.167,383.196 38.349,383.297 38.571 C 383.458 38.923,384.067 39.893,385.816 42.583 C 386.055 42.950,386.306 43.275,386.375 43.306 C 386.444 43.336,386.500 43.456,386.500 43.571 C 386.500 43.687,386.650 43.917,386.833 44.083 C 387.017 44.249,387.167 44.481,387.167 44.597 C 387.167 44.714,387.293 44.936,387.447 45.089 C 387.601 45.243,387.844 45.605,387.988 45.893 L 388.250 46.417 394.125 46.460 L 400.000 46.504 400.000 46.110 C 400.000 45.893,399.813 45.513,399.583 45.266 C 399.354 45.018,399.167 44.758,399.167 44.687 C 399.167 44.552,397.855 42.775,397.419 42.319 C 397.280 42.174,397.167 41.981,397.167 41.890 C 397.167 41.799,396.979 41.549,396.750 41.333 C 396.521 41.118,396.333 40.842,396.333 40.721 C 396.333 40.599,396.256 40.500,396.163 40.500 C 396.069 40.500,395.920 40.313,395.833 40.083 C 395.746 39.854,395.598 39.667,395.504 39.667 C 395.410 39.667,395.333 39.567,395.333 39.446 C 395.333 39.324,395.146 39.049,394.917 38.833 C 394.688 38.618,394.500 38.346,394.500 38.229 C 394.500 38.112,394.406 37.957,394.292 37.883 C 394.177 37.810,393.825 37.375,393.509 36.917 C 393.192 36.458,392.892 36.046,392.842 36.000 C 392.791 35.954,392.675 35.796,392.583 35.648 C 392.320 35.224,391.796 34.474,391.252 33.742 C 390.976 33.370,390.600 32.856,390.417 32.600 C 389.979 31.988,389.215 30.969,389.002 30.715 C 388.783 30.454,388.789 30.354,389.042 30.098 C 389.156 29.981,389.438 29.639,389.667 29.337 C 389.896 29.036,390.758 27.911,391.583 26.839 C 392.408 25.767,393.233 24.681,393.417 24.427 C 394.014 23.599,395.321 21.923,395.580 21.653 C 395.719 21.507,395.833 21.318,395.833 21.231 C 395.833 21.145,395.965 20.953,396.125 20.806 C 396.285 20.659,396.551 20.361,396.716 20.144 C 396.880 19.927,397.499 19.119,398.091 18.349 C 398.709 17.543,399.167 16.781,399.167 16.557 L 399.167 16.167 393.478 16.167 C 387.353 16.167,387.167 16.194,387.167 17.101 C 387.167 17.219,387.073 17.377,386.958 17.450 C 386.709 17.610,386.415 18.057,386.078 18.792 C 385.941 19.090,385.764 19.333,385.685 19.333 C 385.605 19.333,385.441 19.574,385.319 19.868 C 385.197 20.162,384.963 20.537,384.799 20.701 C 384.634 20.866,384.500 21.078,384.500 21.174 C 384.500 21.269,384.350 21.508,384.167 21.705 C 383.983 21.902,383.833 22.161,383.833 22.281 C 383.833 22.402,383.767 22.500,383.687 22.500 C 383.606 22.500,383.447 22.725,383.333 23.000 C 383.219 23.275,383.065 23.500,382.991 23.500 C 382.917 23.500,382.808 23.650,382.750 23.832 C 382.692 24.015,382.555 24.259,382.445 24.374 C 382.335 24.489,381.987 25.015,381.671 25.542 C 381.355 26.069,381.037 26.500,380.965 26.500 C 380.892 26.500,380.833 26.620,380.833 26.768 C 380.833 26.915,380.646 27.258,380.417 27.530 C 380.188 27.803,380.000 28.124,380.000 28.245 C 380.000 28.366,379.887 28.508,379.750 28.560 C 379.529 28.645,379.500 27.127,379.500 15.508 C 379.500 8.277,379.454 2.242,379.399 2.097 C 379.310 1.865,378.712 1.833,374.399 1.833 L 369.500 1.833 369.500 24.169 M326.125 2.360 C 325.873 2.452,325.667 2.591,325.667 2.669 C 325.667 2.747,325.517 2.858,325.333 2.917 C 324.928 3.045,323.837 4.168,323.835 4.458 C 323.834 4.573,323.765 4.667,323.682 4.667 C 322.844 4.667,323.190 8.734,324.132 9.969 C 326.499 13.070,332.896 12.759,333.917 9.493 C 333.987 9.268,334.126 9.032,334.225 8.968 C 334.527 8.775,334.560 5.658,334.265 5.167 C 334.127 4.938,333.941 4.588,333.851 4.391 C 333.619 3.883,332.537 2.833,332.244 2.833 C 332.110 2.833,332.000 2.766,332.000 2.683 C 332.000 2.205,327.263 1.945,326.125 2.360 M86.673 4.489 C 86.578 4.666,86.500 4.934,86.500 5.083 C 86.500 5.232,86.313 5.765,86.083 6.266 C 85.854 6.767,85.667 7.301,85.667 7.452 C 85.667 7.690,85.271 8.677,84.847 9.500 C 84.776 9.637,84.624 10.144,84.509 10.625 C 84.394 11.106,84.236 11.500,84.158 11.500 C 84.081 11.500,83.928 11.950,83.820 12.500 C 83.712 13.050,83.568 13.500,83.500 13.500 C 83.432 13.500,83.278 13.856,83.158 14.292 C 82.966 14.984,82.762 15.525,82.170 16.917 C 82.092 17.100,81.930 17.606,81.811 18.042 C 81.692 18.477,81.541 18.833,81.475 18.833 C 81.410 18.833,81.268 19.265,81.159 19.792 C 81.050 20.319,80.907 20.787,80.840 20.833 C 80.774 20.879,80.517 21.508,80.270 22.230 C 80.022 22.953,79.710 23.755,79.576 24.014 C 79.443 24.272,79.331 24.618,79.328 24.783 C 79.325 24.948,79.138 25.458,78.913 25.917 C 78.688 26.375,78.502 26.904,78.502 27.092 C 78.501 27.280,78.434 27.505,78.353 27.592 C 78.273 27.679,78.113 28.050,77.998 28.417 C 77.884 28.783,77.734 29.158,77.667 29.250 C 77.599 29.342,77.451 29.810,77.339 30.292 C 77.226 30.773,77.069 31.167,76.991 31.167 C 76.913 31.167,76.798 31.448,76.737 31.792 C 76.675 32.135,76.447 32.813,76.229 33.297 C 76.011 33.781,75.833 34.301,75.833 34.452 C 75.833 34.690,75.435 35.684,75.014 36.500 C 74.942 36.637,74.784 37.144,74.661 37.625 C 74.538 38.106,74.381 38.500,74.314 38.500 C 74.246 38.500,74.101 38.931,73.992 39.458 C 73.884 39.985,73.732 40.456,73.657 40.504 C 73.581 40.552,73.422 40.965,73.304 41.421 C 73.186 41.877,73.049 42.287,73.001 42.333 C 72.858 42.469,72.167 44.238,72.167 44.468 C 72.167 44.585,72.011 44.984,71.822 45.356 C 71.217 46.542,71.024 46.500,77.075 46.500 L 82.494 46.500 82.606 46.053 C 82.668 45.807,82.819 45.413,82.941 45.178 C 83.064 44.942,83.165 44.577,83.166 44.366 C 83.166 44.155,83.319 43.647,83.506 43.238 C 83.692 42.828,83.911 42.176,83.991 41.788 C 84.072 41.401,84.321 40.558,84.545 39.917 C 84.769 39.275,85.041 38.431,85.149 38.042 L 85.347 37.333 92.489 37.333 C 99.135 37.333,99.639 37.354,99.748 37.625 C 99.812 37.785,99.973 38.325,100.105 38.824 C 100.238 39.323,100.408 39.810,100.485 39.907 C 100.561 40.004,100.677 40.383,100.743 40.750 C 100.809 41.117,101.000 41.717,101.167 42.083 C 101.333 42.450,101.524 43.050,101.590 43.417 C 101.656 43.783,101.765 44.158,101.832 44.250 C 101.899 44.342,102.008 44.642,102.073 44.917 C 102.139 45.192,102.308 45.660,102.449 45.958 L 102.705 46.500 108.088 46.500 C 112.245 46.500,113.489 46.453,113.546 46.292 C 113.626 46.066,113.074 44.517,112.821 44.258 C 112.736 44.171,112.667 43.908,112.667 43.673 C 112.667 43.437,112.522 42.975,112.345 42.645 C 112.168 42.315,111.972 41.772,111.910 41.437 C 111.847 41.103,111.654 40.552,111.481 40.213 C 111.308 39.874,111.167 39.462,111.167 39.298 C 111.167 39.134,111.101 39.000,111.022 39.000 C 110.942 39.000,110.836 38.747,110.786 38.438 C 110.736 38.129,110.538 37.533,110.347 37.114 C 110.156 36.695,110.000 36.231,110.000 36.083 C 110.000 35.936,109.848 35.482,109.662 35.074 C 109.477 34.667,109.279 34.090,109.222 33.792 C 109.166 33.494,109.065 33.175,108.998 33.083 C 108.931 32.992,108.786 32.635,108.675 32.292 C 108.565 31.948,108.405 31.667,108.320 31.667 C 108.236 31.667,108.166 31.423,108.165 31.125 C 108.164 30.827,107.979 30.208,107.754 29.750 C 107.528 29.292,107.341 28.781,107.339 28.616 C 107.336 28.450,107.181 27.982,106.996 27.574 C 106.810 27.167,106.613 26.607,106.558 26.330 C 106.502 26.053,106.392 25.786,106.312 25.737 C 106.232 25.687,106.167 25.517,106.167 25.359 C 106.167 25.200,106.017 24.776,105.833 24.417 C 105.650 24.057,105.500 23.624,105.500 23.454 C 105.500 23.284,105.313 22.735,105.083 22.234 C 104.854 21.733,104.667 21.222,104.667 21.097 C 104.667 20.973,104.555 20.657,104.418 20.394 C 104.281 20.131,104.168 19.802,104.168 19.662 C 104.167 19.522,104.065 19.260,103.940 19.079 C 103.816 18.898,103.666 18.486,103.607 18.164 C 103.548 17.841,103.350 17.298,103.166 16.956 C 102.983 16.614,102.831 16.166,102.828 15.959 C 102.825 15.752,102.638 15.208,102.413 14.750 C 102.188 14.292,102.002 13.752,102.002 13.552 C 102.001 13.351,101.933 13.145,101.852 13.095 C 101.770 13.044,101.652 12.796,101.589 12.543 C 101.526 12.290,101.375 11.858,101.253 11.583 C 101.131 11.308,100.981 10.861,100.920 10.589 C 100.859 10.317,100.664 9.778,100.488 9.390 C 100.311 9.002,100.167 8.561,100.167 8.410 C 100.167 8.259,100.061 7.936,99.932 7.692 C 99.803 7.449,99.492 6.650,99.240 5.917 C 98.989 5.183,98.711 4.490,98.621 4.375 C 98.310 3.975,86.889 4.084,86.673 4.489 M92.909 15.744 C 93.056 16.376,93.242 16.974,93.323 17.072 C 93.404 17.170,93.523 17.550,93.588 17.917 C 93.653 18.283,93.802 18.808,93.920 19.083 C 94.204 19.749,95.299 23.077,95.511 23.917 C 95.603 24.283,95.782 24.808,95.909 25.083 C 96.035 25.358,96.193 25.876,96.260 26.234 C 96.326 26.593,96.482 27.080,96.606 27.318 C 96.730 27.556,96.878 27.995,96.935 28.294 C 96.991 28.592,97.104 28.878,97.186 28.928 C 97.727 29.263,96.909 29.333,92.482 29.333 L 87.631 29.333 87.744 28.881 C 87.807 28.632,88.002 28.111,88.179 27.723 C 88.355 27.336,88.500 26.857,88.500 26.659 C 88.500 26.462,88.607 26.064,88.737 25.775 C 89.051 25.078,90.270 21.394,90.414 20.707 C 90.476 20.408,90.638 19.941,90.773 19.670 C 90.909 19.399,91.063 18.893,91.116 18.547 C 91.169 18.200,91.267 17.842,91.334 17.750 C 91.504 17.515,92.116 15.544,92.259 14.770 C 92.407 13.970,92.546 14.178,92.909 15.744 M133.500 15.609 C 133.362 15.654,133.100 15.752,132.917 15.826 C 132.733 15.900,132.070 16.169,131.443 16.422 C 130.817 16.676,130.265 16.985,130.217 17.108 C 130.170 17.232,130.038 17.333,129.924 17.333 C 129.693 17.333,127.696 19.237,127.385 19.754 C 127.223 20.022,127.184 19.716,127.176 18.125 L 127.167 16.167 122.167 16.167 L 117.167 16.167 117.167 31.313 L 117.167 46.458 117.687 46.563 C 118.580 46.741,126.493 46.682,126.844 46.494 C 127.157 46.327,127.167 46.047,127.167 37.202 L 127.168 28.083 127.560 26.964 C 129.452 21.560,135.965 21.981,136.663 27.552 C 136.760 28.320,136.833 32.717,136.833 37.686 C 136.833 45.537,136.861 46.475,137.097 46.566 C 137.441 46.698,146.059 46.698,146.403 46.566 C 146.640 46.475,146.667 45.345,146.667 35.513 C 146.667 24.584,146.607 23.228,146.077 22.213 C 145.944 21.958,145.835 21.620,145.834 21.461 C 145.829 19.990,143.148 16.995,141.167 16.247 C 140.754 16.091,140.180 15.859,139.891 15.732 C 139.378 15.505,134.122 15.404,133.500 15.609 M164.667 15.616 C 164.438 15.661,164.175 15.754,164.083 15.821 C 163.992 15.889,163.467 16.039,162.917 16.155 C 162.367 16.271,161.467 16.577,160.917 16.834 C 160.367 17.092,159.758 17.349,159.564 17.406 C 159.369 17.462,159.077 17.657,158.913 17.838 C 158.749 18.019,158.514 18.167,158.391 18.167 C 158.268 18.167,158.167 18.244,158.167 18.339 C 158.167 18.433,158.035 18.559,157.875 18.618 C 157.335 18.818,154.834 21.290,154.834 21.625 C 154.834 21.740,154.762 21.833,154.676 21.833 C 154.589 21.833,154.420 22.013,154.301 22.232 C 153.352 23.971,152.833 25.066,152.833 25.333 C 152.833 25.506,152.767 25.688,152.686 25.738 C 152.605 25.788,152.445 26.336,152.331 26.956 C 152.216 27.576,152.039 28.189,151.936 28.317 C 151.676 28.645,151.679 35.195,151.940 35.516 C 152.045 35.645,152.218 36.176,152.325 36.696 C 152.431 37.217,152.664 37.944,152.843 38.313 C 153.021 38.682,153.167 39.063,153.167 39.159 C 153.167 39.255,153.234 39.333,153.315 39.333 C 153.397 39.333,153.513 39.529,153.573 39.767 C 153.792 40.641,156.007 43.256,157.234 44.088 C 157.500 44.269,157.862 44.554,158.039 44.722 C 158.215 44.889,158.579 45.103,158.847 45.196 C 159.114 45.290,159.333 45.422,159.333 45.490 C 159.333 45.558,159.652 45.714,160.042 45.837 C 160.431 45.960,160.825 46.112,160.917 46.175 C 161.008 46.238,161.383 46.380,161.750 46.490 C 162.117 46.600,162.567 46.757,162.750 46.838 C 163.733 47.277,172.130 47.273,173.083 46.834 C 173.267 46.750,173.754 46.595,174.167 46.491 C 174.579 46.386,174.992 46.243,175.083 46.173 C 175.175 46.103,175.444 46.000,175.681 45.943 C 175.918 45.887,176.312 45.684,176.556 45.492 L 177.000 45.142 177.000 41.425 C 177.000 37.344,176.926 37.016,176.137 37.569 C 175.929 37.714,175.623 37.833,175.458 37.833 C 175.292 37.833,175.117 37.935,175.069 38.060 C 175.022 38.184,174.668 38.385,174.283 38.506 C 173.898 38.627,173.508 38.782,173.417 38.849 C 173.325 38.916,172.781 39.067,172.208 39.185 C 171.635 39.303,171.167 39.460,171.167 39.533 C 171.167 39.607,170.492 39.667,169.667 39.667 C 168.842 39.667,168.167 39.601,168.167 39.522 C 168.167 39.442,167.908 39.335,167.592 39.284 C 167.070 39.199,166.502 38.986,165.343 38.441 C 164.521 38.055,163.177 36.546,162.627 35.392 L 162.083 34.250 162.083 31.417 C 162.083 28.374,162.242 27.735,163.404 26.095 C 165.820 22.686,172.047 22.250,176.194 25.200 C 176.911 25.710,177.000 25.244,177.000 20.977 L 177.000 16.995 176.484 16.681 C 176.201 16.509,175.619 16.279,175.193 16.171 C 174.766 16.063,174.267 15.887,174.083 15.779 C 173.746 15.581,165.558 15.439,164.667 15.616 M228.917 15.663 C 228.642 15.740,227.929 15.928,227.333 16.080 C 226.737 16.232,226.100 16.422,225.917 16.502 C 224.129 17.289,223.333 17.699,223.333 17.837 C 223.333 17.926,223.234 18.000,223.112 18.000 C 222.390 18.000,218.833 21.535,218.833 22.253 C 218.833 22.395,218.727 22.551,218.596 22.601 C 218.248 22.735,217.046 25.768,216.920 26.829 C 216.861 27.331,216.737 27.832,216.646 27.942 C 216.402 28.235,216.276 32.743,216.478 33.917 C 217.155 37.839,218.532 41.016,220.146 42.374 C 220.397 42.585,220.652 42.887,220.712 43.045 C 220.773 43.204,220.920 43.333,221.038 43.333 C 221.156 43.333,221.343 43.477,221.453 43.653 C 221.667 43.995,223.341 45.167,223.617 45.167 C 223.708 45.167,223.957 45.318,224.170 45.503 C 224.383 45.687,224.844 45.884,225.195 45.941 C 225.546 45.997,225.833 46.101,225.833 46.171 C 225.833 46.242,226.227 46.394,226.708 46.509 C 227.190 46.624,227.696 46.781,227.833 46.858 C 229.207 47.624,237.495 47.144,239.750 46.168 C 239.933 46.088,240.365 45.937,240.708 45.832 C 241.052 45.727,241.333 45.572,241.333 45.487 C 241.333 45.403,241.434 45.333,241.557 45.333 C 242.571 45.333,245.867 42.320,247.118 40.250 C 247.646 39.377,248.500 37.459,248.500 37.147 C 248.500 37.011,248.563 36.829,248.640 36.742 C 248.804 36.555,249.167 34.594,249.167 33.889 C 249.167 33.620,249.246 33.321,249.343 33.224 C 249.995 32.572,248.741 23.833,247.996 23.833 C 247.927 23.833,247.820 23.567,247.759 23.241 C 247.698 22.916,247.540 22.608,247.407 22.557 C 247.275 22.506,247.167 22.367,247.167 22.247 C 247.167 21.967,245.947 20.408,245.178 19.707 C 244.851 19.408,244.433 19.027,244.250 18.861 C 243.767 18.423,242.188 17.333,242.037 17.333 C 241.966 17.333,241.497 17.123,240.995 16.865 C 240.494 16.608,239.633 16.296,239.083 16.171 C 238.533 16.046,237.978 15.863,237.850 15.764 C 237.564 15.543,229.656 15.454,228.917 15.663 M270.417 15.614 C 270.142 15.659,269.842 15.755,269.750 15.826 C 269.658 15.898,269.289 16.051,268.930 16.167 C 268.129 16.425,267.167 16.980,267.167 17.183 C 267.167 17.266,267.053 17.333,266.913 17.333 C 266.774 17.333,266.574 17.521,266.470 17.750 C 266.365 17.979,266.194 18.167,266.090 18.167 C 265.986 18.167,265.717 18.469,265.492 18.838 C 264.651 20.220,264.678 20.242,264.672 18.125 L 264.667 16.167 259.667 16.167 L 254.667 16.167 254.667 31.336 L 254.667 46.505 259.625 46.461 L 264.583 46.417 264.667 37.750 C 264.725 31.699,264.807 28.983,264.940 28.750 C 265.045 28.567,265.358 27.958,265.635 27.398 C 266.669 25.311,268.008 24.458,270.631 24.216 C 271.115 24.172,271.602 24.210,271.714 24.302 C 271.825 24.394,272.292 24.523,272.750 24.589 C 273.208 24.654,273.793 24.830,274.049 24.978 C 274.783 25.403,274.828 25.142,274.831 20.415 C 274.833 16.101,274.832 16.079,274.458 15.840 C 274.075 15.595,271.434 15.447,270.417 15.614 M289.333 15.616 C 289.104 15.661,288.842 15.755,288.750 15.824 C 288.658 15.894,288.096 16.050,287.500 16.171 C 286.904 16.293,286.006 16.604,285.505 16.863 C 285.003 17.122,284.523 17.333,284.437 17.333 C 284.351 17.333,284.036 17.521,283.735 17.750 C 283.435 17.979,283.121 18.167,283.038 18.167 C 282.954 18.167,282.447 18.579,281.909 19.083 C 281.372 19.587,280.872 20.000,280.799 20.000 C 280.726 20.000,280.667 20.067,280.667 20.150 C 280.667 20.232,280.397 20.589,280.067 20.942 C 279.737 21.295,279.374 21.696,279.259 21.833 C 278.850 22.325,277.875 24.118,277.668 24.762 C 277.552 25.122,277.394 25.496,277.318 25.593 C 277.242 25.689,277.094 26.327,276.989 27.009 C 276.884 27.692,276.713 28.355,276.608 28.484 C 276.336 28.817,276.343 35.027,276.616 35.355 C 276.725 35.487,276.891 36.068,276.984 36.647 C 277.077 37.226,277.219 37.786,277.299 37.892 C 277.379 37.997,277.547 38.346,277.673 38.667 C 277.985 39.465,278.969 41.135,279.434 41.655 C 280.440 42.784,280.969 43.333,281.047 43.333 C 281.095 43.333,281.388 43.577,281.699 43.875 C 282.900 45.024,284.837 46.036,287.167 46.732 C 288.945 47.263,296.679 47.340,297.750 46.837 C 297.933 46.751,298.421 46.595,298.833 46.491 C 299.246 46.386,299.658 46.247,299.750 46.180 C 299.842 46.114,300.228 45.962,300.608 45.842 C 301.615 45.525,301.667 45.305,301.667 41.357 C 301.667 37.183,301.632 37.078,300.442 37.654 C 300.017 37.860,299.630 38.092,299.582 38.169 C 299.534 38.246,299.215 38.396,298.873 38.502 C 298.530 38.608,298.020 38.798,297.739 38.924 C 297.459 39.050,296.915 39.203,296.531 39.264 C 296.147 39.326,295.833 39.441,295.833 39.521 C 295.833 39.713,292.880 39.710,292.762 39.519 C 292.711 39.438,292.388 39.320,292.044 39.257 C 290.692 39.010,288.971 37.852,287.890 36.462 C 287.490 35.947,287.012 34.776,286.828 33.863 C 286.724 33.342,286.569 32.786,286.486 32.627 C 286.294 32.263,286.285 30.454,286.474 30.242 C 286.552 30.155,286.714 29.540,286.834 28.875 C 286.955 28.210,287.101 27.667,287.160 27.667 C 287.218 27.667,287.363 27.399,287.481 27.073 C 288.070 25.443,290.659 23.686,293.011 23.320 C 295.099 22.994,298.582 23.588,299.513 24.429 C 299.658 24.560,299.902 24.667,300.055 24.667 C 300.208 24.667,300.333 24.743,300.333 24.837 C 300.333 24.931,300.522 25.093,300.753 25.198 C 301.572 25.572,301.655 25.184,301.661 20.958 C 301.667 16.583,301.716 16.725,300.054 16.244 C 299.520 16.090,298.933 15.878,298.750 15.774 C 298.412 15.581,290.203 15.443,289.333 15.616 M352.000 15.616 C 351.771 15.661,351.508 15.755,351.417 15.824 C 351.325 15.894,350.770 16.049,350.184 16.170 C 349.598 16.290,348.703 16.602,348.196 16.861 C 347.688 17.121,347.199 17.333,347.110 17.333 C 347.021 17.333,346.702 17.521,346.402 17.750 C 346.101 17.979,345.792 18.167,345.715 18.167 C 345.638 18.167,345.328 18.392,345.027 18.667 C 344.726 18.942,344.414 19.167,344.334 19.167 C 344.254 19.167,344.143 19.313,344.086 19.491 C 344.029 19.670,343.837 19.863,343.658 19.919 C 343.479 19.976,343.333 20.085,343.333 20.161 C 343.333 20.238,343.063 20.589,342.734 20.942 C 341.665 22.085,341.567 22.229,340.842 23.750 C 340.448 24.575,340.061 25.378,339.982 25.535 C 339.903 25.692,339.754 26.367,339.652 27.035 C 339.549 27.703,339.379 28.355,339.274 28.484 C 339.002 28.817,339.010 35.027,339.282 35.355 C 339.392 35.487,339.557 36.068,339.651 36.647 C 339.744 37.226,339.886 37.786,339.965 37.892 C 340.045 37.997,340.214 38.346,340.340 38.667 C 340.642 39.434,341.652 41.141,342.115 41.667 C 343.005 42.677,343.635 43.333,343.714 43.333 C 343.761 43.333,344.055 43.577,344.366 43.875 C 345.567 45.024,347.503 46.036,349.833 46.732 C 351.570 47.251,359.468 47.346,360.333 46.859 C 360.471 46.782,360.977 46.624,361.459 46.509 C 361.940 46.394,362.376 46.232,362.427 46.150 C 362.478 46.067,362.666 46.000,362.845 46.000 C 363.198 46.000,363.842 45.685,364.039 45.417 C 364.235 45.150,364.193 37.536,363.995 37.414 C 363.820 37.305,362.404 37.917,362.249 38.169 C 362.201 38.246,361.882 38.396,361.539 38.502 C 361.197 38.608,360.687 38.798,360.406 38.924 C 360.125 39.050,359.582 39.203,359.198 39.264 C 358.814 39.326,358.500 39.441,358.500 39.521 C 358.500 39.601,357.825 39.667,357.000 39.667 C 356.175 39.667,355.500 39.607,355.500 39.533 C 355.500 39.460,355.050 39.307,354.500 39.193 C 353.950 39.080,353.500 38.915,353.500 38.827 C 353.500 38.739,353.376 38.667,353.224 38.667 C 352.755 38.667,351.440 37.567,350.511 36.398 C 350.159 35.956,349.671 34.736,349.495 33.863 C 349.390 33.342,349.236 32.786,349.152 32.627 C 348.962 32.266,348.951 30.456,349.138 30.242 C 349.214 30.155,349.375 29.563,349.496 28.926 C 350.193 25.252,353.810 22.866,358.133 23.228 C 359.410 23.336,361.731 24.024,362.180 24.429 C 362.325 24.560,362.552 24.667,362.684 24.667 C 362.817 24.667,363.054 24.817,363.211 25.000 C 364.093 26.030,364.269 25.238,364.169 20.702 C 364.073 16.345,364.184 16.676,362.667 16.232 C 362.162 16.084,361.600 15.878,361.417 15.774 C 361.079 15.581,352.870 15.443,352.000 15.616 M323.833 31.333 L 323.833 46.505 328.792 46.461 L 333.750 46.417 333.750 31.333 L 333.750 16.250 328.792 16.206 L 323.833 16.162 323.833 31.333 M235.513 23.599 C 236.278 23.895,237.653 24.820,237.662 25.045 C 237.664 25.116,237.850 25.453,238.073 25.795 C 238.297 26.137,238.532 26.642,238.596 26.917 C 238.660 27.192,238.773 27.494,238.847 27.589 C 239.499 28.426,239.424 33.816,238.743 35.122 C 238.610 35.376,238.502 35.740,238.501 35.932 C 238.500 36.124,238.313 36.499,238.084 36.766 C 237.854 37.032,237.667 37.381,237.667 37.542 C 237.667 37.702,237.573 37.835,237.458 37.836 C 237.344 37.838,237.073 38.025,236.858 38.253 C 236.642 38.480,236.393 38.667,236.304 38.667 C 236.215 38.667,236.037 38.772,235.908 38.901 C 235.779 39.031,235.372 39.187,235.003 39.249 C 234.635 39.312,234.333 39.431,234.333 39.515 C 234.333 40.429,229.685 39.088,228.535 37.842 C 227.804 37.049,227.675 36.871,227.479 36.381 C 227.376 36.126,227.230 35.767,227.154 35.583 C 226.888 34.942,226.669 33.911,226.668 33.302 C 226.667 32.963,226.592 32.640,226.500 32.583 C 226.291 32.454,226.280 30.430,226.486 30.039 C 226.571 29.880,226.727 29.206,226.835 28.542 C 226.942 27.878,227.098 27.292,227.182 27.241 C 227.265 27.189,227.333 27.034,227.333 26.895 C 227.333 26.291,228.960 24.399,229.931 23.873 C 231.283 23.142,233.990 23.009,235.513 23.599 " stroke="none" fill="#040404" fill-rule="evenodd"></path><path id="path2" d="M3.269 19.137 C 3.222 19.212,3.405 19.241,3.675 19.201 C 3.946 19.161,4.167 19.100,4.167 19.064 C 4.167 18.937,3.351 19.003,3.269 19.137 " stroke="none" fill="#f01014" fill-rule="evenodd"></path><path id="path3" d="" stroke="none" fill="#401014" fill-rule="evenodd"></path><path id="path4" d="" stroke="none" fill="#041018" fill-rule="evenodd"></path></g></svg>