<svg width="636" height="122" viewBox="0 0 636 122" fill="none" xmlns="http://www.w3.org/2000/svg">
<g clip-path="url(#clip0_2_10)">
<path d="M0 -1.21428H12.3214V11.1071H0V-1.21428ZM12.3214 -1.21428H24.6429V11.1071H12.3214V-1.21428ZM24.6429 -1.21428H36.9643V11.1071H24.6429V-1.21428ZM36.9643 -1.21428H49.2857V11.1071H36.9643V-1.21428ZM49.2857 -1.21428H61.6071V11.1071H49.2857V-1.21428ZM61.6071 -1.21428H73.9286V11.1071H61.6071V-1.21428ZM61.6071 11.1071H73.9286V23.4286H61.6071V11.1071ZM49.2857 11.1071H61.6071V23.4286H49.2857V11.1071ZM36.9643 11.1071H49.2857V23.4286H36.9643V11.1071ZM24.6429 11.1071H36.9643V23.4286H24.6429V11.1071ZM12.3214 11.1071H24.6429V23.4286H12.3214V11.1071ZM0 11.1071H12.3214V23.4286H0V11.1071ZM73.9286 11.1071H86.25V23.4286H73.9286V11.1071ZM73.9286 23.4286H86.25V35.75H73.9286V23.4286ZM73.9286 35.75H86.25V48.0714H73.9286V35.75ZM61.6071 35.75H73.9286V48.0714H61.6071V35.75ZM61.6071 23.4286H73.9286V35.75H61.6071V23.4286ZM61.6071 48.0714H73.9286V60.3929H61.6071V48.0714ZM49.2857 48.0714H61.6071V60.3929H49.2857V48.0714ZM36.9643 48.0714H49.2857V60.3929H36.9643V48.0714ZM24.6429 48.0714H36.9643V60.3929H24.6429V48.0714ZM12.3214 48.0714H24.6429V60.3929H12.3214V48.0714ZM12.3214 35.75H24.6429V48.0714H12.3214V35.75ZM12.3214 23.4286H24.6429V35.75H12.3214V23.4286ZM0 23.4286H12.3214V35.75H0V23.4286ZM0 35.75H12.3214V48.0714H0V35.75ZM0 48.0714H12.3214V60.3929H0V48.0714ZM0 60.3929H12.3214V72.7143H0V60.3929ZM12.3214 60.3929H24.6429V72.7143H12.3214V60.3929ZM24.6429 60.3929H36.9643V72.7143H24.6429V60.3929ZM36.9643 60.3929H49.2857V72.7143H36.9643V60.3929ZM49.2857 60.3929H61.6071V72.7143H49.2857V60.3929ZM61.6071 60.3929H73.9286V72.7143H61.6071V60.3929ZM73.9286 60.3929H86.25V72.7143H73.9286V60.3929ZM73.9286 72.7143H86.25V85.0357H73.9286V72.7143ZM61.6071 72.7143H73.9286V85.0357H61.6071V72.7143ZM61.6071 97.3571H73.9286V109.679H61.6071V97.3571ZM73.9286 97.3571H86.25V109.679H73.9286V97.3571ZM73.9286 85.0357H86.25V97.3571H73.9286V85.0357ZM61.6071 85.0357H73.9286V97.3571H61.6071V85.0357ZM61.6071 109.679H73.9286V122H61.6071V109.679ZM49.2857 109.679H61.6071V122H49.2857V109.679ZM36.9643 109.679H49.2857V122H36.9643V109.679ZM24.6429 109.679H36.9643V122H24.6429V109.679ZM12.3214 109.679H24.6429V122H12.3214V109.679ZM0 109.679H12.3214V122H0V109.679ZM0 97.3571H12.3214V109.679H0V97.3571ZM0 85.0357H12.3214V97.3571H0V85.0357ZM0 72.7143H12.3214V85.0357H0V72.7143ZM12.3214 72.7143H24.6429V85.0357H12.3214V72.7143ZM12.3214 85.0357H24.6429V97.3571H12.3214V85.0357ZM12.3214 97.3571H24.6429V109.679H12.3214V97.3571ZM24.6429 97.3571H36.9643V109.679H24.6429V97.3571ZM36.9643 97.3571H49.2857V109.679H36.9643V97.3571ZM49.2857 97.3571H61.6071V109.679H49.2857V97.3571Z" fill="#007FFF"/>
<path d="M120.789 105V25H150.086C155.763 25 160.464 25.9375 164.188 27.8125C167.911 29.6615 170.698 32.1745 172.547 35.3516C174.396 38.5026 175.32 42.0573 175.32 46.0156C175.32 49.349 174.708 52.1615 173.484 54.4531C172.26 56.7187 170.62 58.5417 168.563 59.9219C166.531 61.276 164.292 62.2656 161.844 62.8906V63.6719C164.5 63.8021 167.091 64.6615 169.617 66.25C172.169 67.8125 174.279 70.0391 175.945 72.9297C177.612 75.8203 178.445 79.3359 178.445 83.4766C178.445 87.5651 177.482 91.237 175.555 94.4922C173.654 97.7214 170.711 100.286 166.727 102.187C162.742 104.062 157.651 105 151.453 105H120.789ZM132.859 94.6484H150.281C156.063 94.6484 160.203 93.5286 162.703 91.2891C165.203 89.0495 166.453 86.25 166.453 82.8906C166.453 80.3646 165.815 78.0469 164.539 75.9375C163.263 73.8281 161.44 72.1484 159.07 70.8984C156.727 69.6484 153.94 69.0234 150.711 69.0234H132.859V94.6484ZM132.859 59.6094H149.031C151.74 59.6094 154.174 59.0885 156.336 58.0469C158.523 57.0052 160.255 55.5469 161.531 53.6719C162.833 51.7708 163.484 49.5312 163.484 46.9531C163.484 43.6458 162.326 40.8724 160.008 38.6328C157.69 36.3932 154.135 35.2734 149.344 35.2734H132.859V59.6094ZM191.824 105V45H203.113V54.5312H203.738C204.832 51.3021 206.759 48.763 209.52 46.9141C212.306 45.0391 215.457 44.1016 218.973 44.1016C219.702 44.1016 220.561 44.1276 221.551 44.1797C222.566 44.2318 223.361 44.2969 223.934 44.375V55.5469C223.465 55.4167 222.632 55.2734 221.434 55.1172C220.236 54.9349 219.038 54.8437 217.84 54.8437C215.079 54.8437 212.618 55.4297 210.457 56.6016C208.322 57.7474 206.629 59.349 205.379 61.4062C204.129 63.4375 203.504 65.7552 203.504 68.3594V105H191.824ZM257.752 106.211C251.84 106.211 246.749 104.948 242.479 102.422C238.234 99.8698 234.952 96.2891 232.635 91.6797C230.343 87.0443 229.197 81.6146 229.197 75.3906C229.197 69.2448 230.343 63.8281 232.635 59.1406C234.952 54.4531 238.182 50.7943 242.322 48.1641C246.489 45.5339 251.359 44.2188 256.932 44.2188C260.317 44.2188 263.598 44.7786 266.775 45.8984C269.952 47.0182 272.804 48.776 275.33 51.1719C277.856 53.5677 279.848 56.6797 281.307 60.5078C282.765 64.3099 283.494 68.9323 283.494 74.375V78.5156H235.799V69.7656H272.049C272.049 66.6927 271.424 63.9714 270.174 61.6016C268.924 59.2057 267.166 57.3177 264.9 55.9375C262.661 54.5573 260.031 53.8672 257.01 53.8672C253.729 53.8672 250.864 54.6745 248.416 56.2891C245.994 57.8776 244.119 59.9609 242.791 62.5391C241.489 65.0911 240.838 67.8646 240.838 70.8594V77.6953C240.838 81.7057 241.541 85.1172 242.947 87.9297C244.38 90.7422 246.372 92.8906 248.924 94.375C251.476 95.8333 254.458 96.5625 257.869 96.5625C260.083 96.5625 262.101 96.25 263.924 95.625C265.747 94.974 267.322 94.0104 268.65 92.7344C269.979 91.4583 270.994 89.8828 271.697 88.0078L282.752 90C281.867 93.2552 280.278 96.1068 277.986 98.5547C275.721 100.977 272.869 102.865 269.432 104.219C266.02 105.547 262.127 106.211 257.752 106.211ZM313.914 106.328C310.112 106.328 306.674 105.625 303.602 104.219C300.529 102.786 298.094 100.716 296.297 98.0078C294.526 95.2995 293.641 91.9792 293.641 88.0469C293.641 84.6615 294.292 81.875 295.594 79.6875C296.896 77.5 298.654 75.7682 300.867 74.4922C303.081 73.2161 305.555 72.2526 308.289 71.6016C311.023 70.9505 313.81 70.4557 316.648 70.1172C320.242 69.7005 323.159 69.362 325.398 69.1016C327.638 68.8151 329.266 68.3594 330.281 67.7344C331.297 67.1094 331.805 66.0937 331.805 64.6875V64.4141C331.805 61.0026 330.841 58.3594 328.914 56.4844C327.013 54.6094 324.174 53.6719 320.398 53.6719C316.466 53.6719 313.367 54.5443 311.102 56.2891C308.862 58.0078 307.313 59.9219 306.453 62.0312L295.477 59.5312C296.779 55.8854 298.68 52.9427 301.18 50.7031C303.706 48.4375 306.609 46.7969 309.891 45.7812C313.172 44.7396 316.622 44.2188 320.242 44.2188C322.638 44.2188 325.177 44.5052 327.859 45.0781C330.568 45.625 333.094 46.6406 335.438 48.125C337.807 49.6094 339.747 51.7318 341.258 54.4922C342.768 57.2266 343.523 60.7813 343.523 65.1563V105H332.117V96.7969H331.648C330.893 98.3073 329.76 99.7917 328.25 101.25C326.74 102.708 324.799 103.919 322.43 104.883C320.06 105.846 317.221 106.328 313.914 106.328ZM316.453 96.9531C319.682 96.9531 322.443 96.3151 324.734 95.0391C327.052 93.763 328.81 92.0964 330.008 90.0391C331.232 87.9557 331.844 85.7292 331.844 83.3594V75.625C331.427 76.0417 330.62 76.4323 329.422 76.7969C328.25 77.1354 326.909 77.4349 325.398 77.6953C323.888 77.9297 322.417 78.151 320.984 78.3594C319.552 78.5417 318.354 78.6979 317.391 78.8281C315.125 79.1146 313.055 79.5964 311.18 80.2734C309.331 80.9505 307.846 81.9271 306.727 83.2031C305.633 84.4531 305.086 86.1198 305.086 88.2031C305.086 91.0937 306.154 93.2812 308.289 94.7656C310.424 96.224 313.146 96.9531 316.453 96.9531ZM369.822 84.6484L369.744 70.3906H371.775L395.682 45H409.666L382.4 73.9062H380.564L369.822 84.6484ZM359.08 105V25H370.76V105H359.08ZM396.971 105L375.486 76.4844L383.533 68.3203L411.307 105H396.971ZM448.865 45V54.375H414.959V45H448.865ZM424.256 105V38.0469C424.256 34.2969 425.076 31.1849 426.717 28.7109C428.357 26.2109 430.532 24.349 433.24 23.125C435.949 21.875 438.891 21.25 442.068 21.25C444.412 21.25 446.417 21.4453 448.084 21.8359C449.751 22.2005 450.988 22.5391 451.795 22.8516L449.061 32.3047C448.514 32.1484 447.811 31.9661 446.951 31.7578C446.092 31.5234 445.05 31.4062 443.826 31.4062C440.988 31.4062 438.956 32.1094 437.732 33.5156C436.535 34.9219 435.936 36.9531 435.936 39.6094V105H424.256ZM472.596 25V105H460.916V25H472.596ZM513.582 106.211C507.957 106.211 503.048 104.922 498.855 102.344C494.663 99.7656 491.408 96.1589 489.09 91.5234C486.772 86.888 485.613 81.4714 485.613 75.2734C485.613 69.0495 486.772 63.6068 489.09 58.9453C491.408 54.2839 494.663 50.6641 498.855 48.0859C503.048 45.5078 507.957 44.2188 513.582 44.2188C519.207 44.2188 524.116 45.5078 528.309 48.0859C532.501 50.6641 535.757 54.2839 538.074 58.9453C540.392 63.6068 541.551 69.0495 541.551 75.2734C541.551 81.4714 540.392 86.888 538.074 91.5234C535.757 96.1589 532.501 99.7656 528.309 102.344C524.116 104.922 519.207 106.211 513.582 106.211ZM513.621 96.4062C517.267 96.4062 520.288 95.4427 522.684 93.5156C525.079 91.5885 526.85 89.0234 527.996 85.8203C529.168 82.6172 529.754 79.0885 529.754 75.2344C529.754 71.4062 529.168 67.8906 527.996 64.6875C526.85 61.4583 525.079 58.8672 522.684 56.9141C520.288 54.9609 517.267 53.9844 513.621 53.9844C509.949 53.9844 506.902 54.9609 504.48 56.9141C502.085 58.8672 500.301 61.4583 499.129 64.6875C497.983 67.8906 497.41 71.4062 497.41 75.2344C497.41 79.0885 497.983 82.6172 499.129 85.8203C500.301 89.0234 502.085 91.5885 504.48 93.5156C506.902 95.4427 509.949 96.4062 513.621 96.4062ZM565.77 105L548.113 45H560.184L571.941 89.0625H572.527L584.324 45H596.395L608.113 88.8672H608.699L620.379 45H632.449L614.832 105H602.918L590.73 61.6797H589.832L577.645 105H565.77Z" fill="black"/>
</g>
<defs>
<clipPath id="clip0_2_10">
<rect width="636" height="122" fill="white"/>
</clipPath>
</defs>
</svg>
