<svg id="svg" xmlns="http://www.w3.org/2000/svg" xmlns:xlink="http://www.w3.org/1999/xlink" width="100%" height="100%" viewBox="0, 0, 400,92.87804878048782"><g id="svgg"><path id="path0" d="M37.463 13.422 C 37.463 24.945,37.535 26.481,38.081 26.690 C 38.887 26.999,94.576 26.999,95.383 26.690 C 95.929 26.481,96.000 24.945,96.000 13.422 L 96.000 0.390 66.732 0.390 L 37.463 0.390 37.463 13.422 M333.316 11.835 C 328.351 13.701,328.449 23.572,333.446 24.971 C 336.076 25.707,341.575 25.334,342.936 24.327 C 346.407 21.758,346.068 13.968,342.404 12.106 C 340.916 11.350,335.070 11.176,333.316 11.835 M117.413 14.422 C 116.420 14.603,115.235 14.950,114.779 15.194 L 113.951 15.637 113.951 47.613 L 113.951 79.590 115.220 80.283 C 117.041 81.278,124.892 81.274,126.732 80.277 L 128.000 79.590 128.031 64.088 C 128.048 55.561,128.164 48.846,128.289 49.164 C 128.414 49.482,129.598 51.414,130.920 53.457 C 132.242 55.499,134.365 58.799,135.638 60.790 C 136.910 62.781,138.832 65.766,139.908 67.424 C 140.985 69.082,143.235 72.574,144.910 75.183 C 148.606 80.943,148.664 80.976,155.122 80.976 C 165.494 80.976,165.498 81.000,151.705 60.203 C 146.470 52.311,142.060 45.638,141.905 45.374 C 141.617 44.884,145.385 39.753,156.341 25.715 C 163.886 16.049,163.437 14.199,153.561 14.273 C 148.632 14.310,147.874 14.676,145.386 18.226 C 144.302 19.772,139.990 25.977,135.805 32.016 L 128.195 42.994 128.093 29.280 L 127.990 15.566 126.672 15.015 C 125.014 14.322,119.794 13.988,117.413 14.422 M299.975 19.498 C 297.818 20.186,297.756 20.367,297.756 25.999 L 297.756 31.220 295.068 31.220 C 291.201 31.220,290.602 31.791,290.406 35.668 C 290.103 41.661,290.671 42.537,294.857 42.537 L 297.756 42.537 297.756 56.099 C 297.756 76.569,299.580 80.363,309.980 81.529 C 319.502 82.597,323.304 80.300,323.025 73.649 C 322.830 69.008,322.562 68.751,318.905 69.693 C 311.813 71.521,311.113 70.012,311.057 52.780 L 311.024 42.537 320.777 42.537 L 330.529 42.537 330.630 60.934 L 330.732 79.331 331.833 80.153 C 333.358 81.292,341.458 81.385,343.139 80.284 L 344.195 79.592 344.195 56.746 C 344.195 41.127,344.062 33.651,343.773 33.112 C 342.827 31.344,341.649 31.220,325.866 31.220 L 311.024 31.220 311.024 25.960 L 311.024 20.701 309.980 20.016 C 308.790 19.237,301.909 18.880,299.975 19.498 M0.876 29.591 C 0.488 29.838,0.406 36.439,0.485 61.293 L 0.585 92.683 37.268 92.683 L 73.951 92.683 74.051 61.293 C 74.130 36.439,74.049 29.838,73.661 29.591 C 73.020 29.185,1.516 29.185,0.876 29.591 M190.634 30.295 C 187.618 31.021,184.551 33.098,182.278 35.953 L 180.718 37.911 180.603 35.063 C 180.459 31.492,180.074 31.233,174.901 31.225 C 171.453 31.220,169.920 31.580,169.274 32.546 C 169.117 32.782,168.985 43.448,168.982 56.248 L 168.976 79.520 170.049 80.248 C 171.593 81.295,179.995 81.321,181.578 80.284 L 182.634 79.592 182.634 65.114 L 182.634 50.636 184.361 48.216 C 187.584 43.699,190.027 42.549,194.302 43.537 C 198.442 44.493,199.018 43.718,199.022 37.196 C 199.025 32.864,198.651 31.739,196.978 31.044 C 195.548 30.449,191.821 30.009,190.634 30.295 M218.537 30.439 C 208.178 31.821,203.317 34.782,203.317 39.709 C 203.317 45.239,204.717 46.113,209.834 43.773 C 221.794 38.306,228.897 39.851,229.456 48.042 L 229.659 51.011 223.220 51.240 C 211.442 51.659,205.012 54.445,202.080 60.398 C 200.596 63.412,200.731 70.742,202.329 73.895 C 206.716 82.555,220.804 84.634,229.561 77.915 L 231.415 76.493 231.415 77.813 C 231.415 80.472,232.336 80.976,237.194 80.976 C 243.720 80.976,243.122 82.783,243.121 63.061 C 243.121 41.541,242.657 38.841,238.267 34.795 C 234.415 31.244,226.161 29.422,218.537 30.439 M267.410 30.482 C 258.048 32.042,252.726 37.408,252.764 45.250 C 252.802 53.238,256.516 57.039,268.830 61.694 C 272.351 63.024,274.420 64.928,274.420 66.839 C 274.420 72.497,266.211 73.459,257.144 68.865 C 253.377 66.955,252.488 67.696,252.488 72.748 C 252.488 77.580,253.325 78.732,258.011 80.344 C 269.204 84.195,282.297 80.765,286.260 72.944 C 287.119 71.250,287.304 70.501,287.752 66.927 C 288.674 59.565,283.267 53.612,272.499 50.136 C 265.810 47.977,263.584 44.063,267.427 41.218 C 269.725 39.517,276.120 40.062,280.668 42.346 C 284.585 44.314,285.443 43.430,285.181 37.699 C 284.993 33.582,284.500 32.980,280.221 31.640 C 275.459 30.149,271.538 29.794,267.410 30.482 M374.439 30.268 C 374.010 30.366,372.693 30.639,371.512 30.874 C 360.188 33.129,353.833 42.540,353.884 56.976 C 353.949 75.095,363.899 83.519,382.997 81.625 C 394.190 80.515,396.878 78.898,396.878 73.279 C 396.878 68.311,396.254 67.735,392.354 69.099 C 377.880 74.162,367.667 70.648,367.614 60.585 L 367.610 59.707 382.079 59.707 L 396.548 59.707 397.655 58.600 C 401.548 54.707,398.309 40.413,392.344 35.163 C 388.415 31.704,379.191 29.183,374.439 30.268 M380.611 40.761 C 383.436 41.768,385.246 44.499,385.733 48.488 L 386.007 50.732 376.809 50.732 C 369.707 50.732,367.611 50.620,367.614 50.244 C 367.681 43.240,374.209 38.477,380.611 40.761 M229.463 63.577 L 229.463 67.446 227.415 69.091 C 221.393 73.926,214.240 72.454,214.245 66.381 C 214.249 61.960,218.119 59.817,226.244 59.738 L 229.463 59.707 229.463 63.577 " stroke="none" fill="#000" fill-rule="evenodd"></path></g></svg>